{"glyphs":{"0":{"ha":1028,"x_min":0,"x_max":0,"o":"m 967 482 b 531 983 967 769 825 983 b 61 482 203 983 61 769 b 497 -22 61 192 203 -22 b 967 482 825 -22 967 192 z m 767 482 b 514 125 767 294 697 125 b 261 482 331 125 261 294 b 514 836 261 667 331 836 b 767 482 697 836 767 667 z "},"1":{"ha":694,"x_min":0,"x_max":0,"o":"m 324 0 l 524 0 l 524 978 l 371 978 b 92 806 342 831 186 806 l 33 806 l 33 667 l 324 667 z "},"2":{"ha":1028,"x_min":0,"x_max":0,"o":"m 938 0 l 938 156 l 294 156 b 656 357 346 257 507 297 b 939 658 804 417 939 497 b 507 983 939 897 729 983 b 83 629 268 983 83 867 l 292 629 b 532 836 303 756 381 836 b 731 676 610 836 731 796 b 447 449 731 568 651 536 b 61 0 244 363 61 244 z "},"3":{"ha":1028,"x_min":0,"x_max":0,"o":"m 64 308 b 506 -22 65 43 297 -22 b 964 299 914 -22 964 192 b 772 519 964 404 890 492 l 772 522 b 922 700 886 556 922 636 b 524 983 922 844 828 983 b 90 669 308 983 111 906 l 290 669 b 500 836 296 751 351 836 b 714 696 658 836 714 767 b 536 578 714 615 647 578 l 406 578 l 406 439 l 522 439 b 747 286 715 439 747 349 b 508 125 747 181 642 125 b 264 308 379 125 274 169 z "},"4":{"ha":1028,"x_min":0,"x_max":0,"o":"m 615 358 l 246 358 l 613 803 l 615 803 z m 54 211 l 615 211 l 615 0 l 799 0 l 799 211 l 974 211 l 974 358 l 799 358 l 799 978 l 582 978 l 54 375 z "},"5":{"ha":1028,"x_min":0,"x_max":0,"o":"m 97 435 l 292 431 b 513 507 343 476 400 507 b 747 311 636 507 747 447 b 501 125 747 169 622 125 b 269 272 401 125 297 156 l 61 272 b 506 -22 78 82 247 -22 b 956 333 810 -22 956 124 b 544 646 956 544 769 646 b 289 586 478 646 381 638 l 331 806 l 889 806 l 889 961 l 189 961 z "},"6":{"ha":1028,"x_min":0,"x_max":0,"o":"m 933 719 b 514 983 911 885 776 983 b 61 482 133 983 61 663 b 514 -22 61 194 167 -22 b 958 318 828 -22 958 151 b 561 638 958 481 853 638 b 261 529 429 638 344 613 b 538 836 269 711 364 836 b 729 719 657 836 713 788 z m 285 307 b 518 490 285 403 346 490 b 750 307 689 490 750 403 b 518 125 750 213 689 125 b 285 307 346 125 285 213 z "},"7":{"ha":926,"x_min":0,"x_max":0,"o":"m 22 797 l 678 797 b 193 0 497 625 219 265 l 435 0 b 886 793 478 281 700 588 l 886 961 l 22 961 z "},"8":{"ha":1028,"x_min":0,"x_max":0,"o":"m 61 275 b 514 -22 61 167 135 -22 b 967 275 892 -22 967 167 b 764 524 967 392 908 488 l 764 526 b 924 722 863 556 924 621 b 514 983 924 864 821 983 b 103 722 206 983 103 864 b 263 526 103 621 164 556 l 263 524 b 61 275 118 488 61 392 z m 514 588 b 311 710 381 588 311 632 b 514 836 311 792 381 836 b 715 710 646 836 715 792 b 514 588 715 632 646 588 z m 278 285 b 514 449 278 383 353 449 b 750 285 675 449 750 383 b 514 125 750 190 675 125 b 278 285 353 125 278 190 z "},"9":{"ha":1028,"x_min":0,"x_max":0,"o":"m 94 242 b 514 -22 117 76 251 -22 b 967 479 894 -22 967 299 b 514 983 967 767 861 983 b 69 643 200 983 69 810 b 467 324 69 481 175 324 b 767 432 599 324 683 349 b 490 125 758 250 664 125 b 299 242 371 125 315 174 z m 743 654 b 510 471 743 558 682 471 b 278 654 339 471 278 558 b 510 836 278 749 339 836 b 743 654 682 836 743 749 z "}," ":{"ha":489,"x_min":0,"x_max":0,"o":""},"!":{"ha":489,"x_min":0,"x_max":0,"o":"m 136 726 l 175 290 l 314 290 l 353 726 l 353 992 l 136 992 z m 136 0 l 353 0 l 353 197 l 136 197 z "},"\"":{"ha":489,"x_min":0,"x_max":0,"o":"m 306 563 l 444 563 l 444 992 l 306 992 z m 44 563 l 183 563 l 183 992 l 44 992 z "},"#":{"ha":833,"x_min":0,"x_max":0,"o":"m 457 288 l 417 0 l 539 0 l 579 288 l 719 288 l 719 401 l 594 401 l 617 563 l 757 563 l 757 676 l 632 676 l 672 964 l 550 964 l 510 676 l 376 676 l 417 964 l 294 964 l 254 676 l 114 676 l 114 563 l 239 563 l 217 401 l 76 401 l 76 288 l 201 288 l 161 0 l 283 0 l 324 288 z m 361 563 l 494 563 l 472 401 l 339 401 z "},"$":{"ha":1028,"x_min":0,"x_max":0,"o":"m 549 396 b 779 263 676 378 779 351 b 549 125 779 165 669 128 z m 476 579 b 265 700 356 597 265 621 b 476 828 265 783 349 824 z m 476 -161 l 549 -161 l 549 -22 b 1004 288 754 -18 1004 50 b 549 575 1004 525 757 551 l 549 828 b 746 682 669 814 740 746 l 971 682 b 549 983 942 914 708 974 l 549 1064 l 476 1064 l 476 983 b 49 690 239 981 49 897 b 476 411 49 468 276 436 l 476 125 b 249 314 339 139 256 200 l 24 314 b 476 -22 28 124 156 -7 z "},"%":{"ha":1415,"x_min":0,"x_max":0,"o":"m 211 714 b 336 878 211 786 238 878 b 461 714 435 878 461 786 b 336 550 461 642 435 550 b 211 714 238 550 211 642 z m 353 -22 l 483 -22 l 1063 983 l 932 983 z m 954 247 b 1079 411 954 319 981 411 b 1204 247 1178 411 1204 319 b 1079 83 1204 175 1178 83 b 954 247 981 83 954 175 z m 72 714 b 336 444 72 557 146 444 b 600 714 526 444 600 557 b 336 983 600 871 526 983 b 72 714 146 983 72 871 z m 815 247 b 1079 -22 815 90 889 -22 b 1343 247 1269 -22 1343 90 b 1079 517 1343 404 1269 517 b 815 247 889 517 815 404 z "},"&":{"ha":1208,"x_min":0,"x_max":0,"o":"m 974 -1 l 1235 -1 l 979 235 b 1092 463 1056 329 1085 421 l 949 500 b 867 338 940 463 911 390 l 640 547 b 840 775 700 571 840 636 b 553 992 840 864 774 992 b 254 768 392 992 254 906 b 358 571 254 667 319 606 b 93 279 244 536 93 444 b 488 -28 93 131 199 -28 b 867 101 633 -28 757 1 z m 532 629 b 438 771 494 667 438 721 b 551 861 438 817 467 861 b 665 767 617 861 665 833 b 532 629 665 693 607 665 z m 754 199 b 524 111 704 158 642 111 b 293 294 436 111 293 143 b 457 475 293 393 390 443 z "},"’":{"ha":489,"x_min":0,"x_max":0,"o":"m 136 794 l 239 794 b 136 644 233 710 221 672 l 136 563 b 353 842 293 583 353 696 l 353 992 l 136 992 z "},"(":{"ha":592,"x_min":0,"x_max":0,"o":"m 117 364 b 389 -264 117 114 221 -81 l 528 -264 b 308 364 382 -89 308 139 b 528 992 308 589 382 817 l 389 992 b 117 364 221 807 117 617 z "},")":{"ha":592,"x_min":0,"x_max":0,"o":"m 475 364 b 203 992 475 614 371 808 l 64 992 b 283 364 210 817 283 589 b 64 -264 283 139 210 -89 l 203 -264 b 475 364 371 -79 475 111 z "},"*":{"ha":643,"x_min":0,"x_max":0,"o":"m 99 557 l 190 483 l 319 629 l 451 483 l 547 557 l 418 697 l 596 764 l 553 876 l 383 806 l 383 992 l 261 992 l 261 808 l 90 876 l 47 764 l 226 697 z "},"+":{"ha":833,"x_min":0,"x_max":0,"o":"m 347 0 l 486 0 l 486 282 l 768 282 l 768 421 l 486 421 l 486 703 l 347 703 l 347 421 l 65 421 l 65 282 l 347 282 z "},",":{"ha":489,"x_min":0,"x_max":0,"o":"m 136 0 l 239 0 b 136 -150 232 -85 221 -122 l 136 -232 b 353 47 293 -211 353 -99 l 353 197 l 136 197 z "},"-":{"ha":668,"x_min":0,"x_max":0,"o":"m 89 310 l 579 310 l 579 474 l 89 474 z "},".":{"ha":489,"x_min":0,"x_max":0,"o":"m 136 0 l 353 0 l 353 197 l 136 197 z "},"/":{"ha":564,"x_min":0,"x_max":0,"o":"m -8 -28 l 150 -28 l 572 1019 l 414 1019 z "},":":{"ha":489,"x_min":0,"x_max":0,"o":"m 136 529 l 353 529 l 353 726 l 136 726 z m 136 0 l 353 0 l 353 197 l 136 197 z "},";":{"ha":489,"x_min":0,"x_max":0,"o":"m 136 0 l 239 0 b 136 -150 232 -85 221 -122 l 136 -232 b 353 47 293 -211 353 -99 l 353 197 l 136 197 z m 136 529 l 353 529 l 353 726 l 136 726 z "},"<":{"ha":833,"x_min":0,"x_max":0,"o":"m 65 294 l 768 -11 l 768 128 l 253 351 l 768 575 l 768 714 l 65 408 z "},"=":{"ha":833,"x_min":0,"x_max":0,"o":"m 65 436 l 768 436 l 768 575 l 65 575 z m 65 128 l 768 128 l 768 267 l 65 267 z "},">":{"ha":833,"x_min":0,"x_max":0,"o":"m 768 408 l 65 714 l 65 575 l 581 351 l 65 128 l 65 -11 l 768 294 z "},"?":{"ha":978,"x_min":0,"x_max":0,"o":"m 885 706 b 476 1010 885 846 789 1010 b 63 671 213 1010 71 889 l 263 671 b 469 863 265 815 378 863 b 676 718 560 863 676 832 b 364 311 676 532 364 538 l 364 289 l 556 289 b 885 706 556 449 885 460 z m 351 0 l 568 0 l 568 197 l 351 197 z "},"@":{"ha":1111,"x_min":0,"x_max":0,"o":"m 399 435 b 581 660 399 532 475 660 b 688 540 642 660 688 606 b 507 307 688 439 614 307 b 399 435 443 307 399 360 z m 733 682 b 572 782 697 753 638 782 b 260 418 382 782 260 599 b 472 185 260 292 354 185 b 635 267 535 185 604 218 l 638 267 b 726 185 640 213 678 185 b 1065 590 836 185 1065 314 b 589 1019 1065 846 840 1019 b 46 496 294 1019 46 808 b 581 -28 46 183 294 -28 b 1013 206 760 -28 919 57 l 903 206 b 574 78 829 122 713 78 b 168 496 346 78 168 256 b 574 914 168 736 346 914 b 960 567 789 914 960 792 b 783 294 960 418 869 294 b 760 326 764 294 760 304 b 781 438 760 349 768 389 l 864 763 l 757 763 z "},"A":{"ha":1106,"x_min":0,"x_max":0,"o":"m 378 401 l 550 819 l 719 401 z m -12 0 l 213 0 l 315 246 l 782 246 l 886 0 l 1118 0 l 676 992 l 429 992 z "},"B":{"ha":1157,"x_min":0,"x_max":0,"o":"m 101 0 l 750 0 b 1088 292 1018 0 1088 181 b 907 538 1088 458 983 514 b 1042 744 960 563 1042 603 b 757 992 1042 871 983 992 l 101 992 z m 310 836 l 663 836 b 833 715 783 836 833 797 b 699 589 833 603 757 589 l 310 589 z m 310 442 l 714 442 b 871 301 807 442 871 393 b 683 156 871 174 776 156 l 310 156 z "},"C":{"ha":1208,"x_min":0,"x_max":0,"o":"m 1142 625 b 600 1019 1119 839 942 1019 b 46 496 210 1019 46 775 b 575 -28 46 217 217 -28 b 1142 379 983 -28 1113 182 l 917 379 b 611 128 900 275 828 128 b 263 478 406 128 263 271 b 597 864 263 736 406 864 b 917 625 772 864 896 775 z "},"D":{"ha":1183,"x_min":0,"x_max":0,"o":"m 310 836 l 592 836 b 913 494 708 836 913 817 b 603 156 913 204 753 156 l 310 156 z m 101 0 l 686 0 b 1121 486 1024 0 1121 272 b 636 992 1121 769 1025 992 l 101 992 z "},"E":{"ha":1029,"x_min":0,"x_max":0,"o":"m 101 0 l 974 0 l 974 156 l 310 156 l 310 431 l 936 431 l 936 586 l 310 586 l 310 836 l 963 836 l 963 992 l 101 992 z "},"F":{"ha":951,"x_min":0,"x_max":0,"o":"m 101 0 l 310 0 l 310 431 l 893 431 l 893 586 l 310 586 l 310 836 l 926 836 l 926 992 l 101 992 z "},"G":{"ha":1260,"x_min":0,"x_max":0,"o":"m 1158 544 l 669 544 l 669 389 l 950 389 b 607 128 917 225 819 128 b 263 489 432 128 263 225 b 618 864 263 707 361 864 b 915 672 753 864 878 807 l 1140 672 b 624 1019 1118 867 925 1019 b 46 496 219 1019 46 775 b 629 -28 46 217 210 -28 b 1007 129 785 -28 926 32 l 1036 0 l 1158 0 z "},"H":{"ha":1235,"x_min":0,"x_max":0,"o":"m 101 0 l 310 0 l 310 450 l 925 450 l 925 0 l 1133 0 l 1133 992 l 925 992 l 925 606 l 310 606 l 310 992 l 101 992 z "},"I":{"ha":411,"x_min":0,"x_max":0,"o":"m 101 0 l 310 0 l 310 992 l 101 992 z "},"J":{"ha":875,"x_min":0,"x_max":0,"o":"m 565 358 b 401 128 565 258 564 128 b 229 357 231 128 229 254 l 21 357 b 404 -28 21 211 25 -28 b 774 300 714 -28 774 161 l 774 992 l 565 992 z "},"K":{"ha":1132,"x_min":0,"x_max":0,"o":"m 101 0 l 310 0 l 310 308 l 478 457 l 850 0 l 1132 0 l 640 589 l 1103 992 l 817 992 l 310 532 l 310 992 l 101 992 z "},"L":{"ha":926,"x_min":0,"x_max":0,"o":"m 101 0 l 913 0 l 913 164 l 310 164 l 310 992 l 101 992 z "},"M":{"ha":1492,"x_min":0,"x_max":0,"o":"m 101 0 l 297 0 l 289 819 l 292 819 l 656 0 l 833 0 l 1200 819 l 1203 819 l 1194 0 l 1390 0 l 1390 992 l 1093 992 l 749 222 l 401 992 l 101 992 z "},"N":{"ha":1235,"x_min":0,"x_max":0,"o":"m 101 0 l 301 0 l 301 744 l 304 744 l 899 0 l 1133 0 l 1133 992 l 933 992 l 933 247 l 931 247 l 340 992 l 101 992 z "},"O":{"ha":1258,"x_min":0,"x_max":0,"o":"m 629 -28 b 1213 496 1049 -28 1213 217 b 629 1019 1213 775 1049 1019 b 46 496 210 1019 46 775 b 629 -28 46 217 210 -28 z m 629 128 b 263 496 396 128 263 278 b 629 864 263 714 396 864 b 996 496 863 864 996 714 b 629 128 996 278 863 128 z "},"P":{"ha":1081,"x_min":0,"x_max":0,"o":"m 310 836 l 660 836 b 826 683 740 836 826 806 b 644 533 826 565 763 533 l 310 533 z m 101 0 l 310 0 l 310 378 l 715 378 b 1035 683 939 378 1035 532 b 713 992 1035 843 956 992 l 101 992 z "},"Q":{"ha":1258,"x_min":0,"x_max":0,"o":"m 1082 -131 l 1182 -15 l 1046 100 b 1213 496 1163 197 1213 342 b 629 1019 1213 775 1049 1019 b 46 496 210 1019 46 775 b 629 -28 46 217 210 -28 b 907 19 739 -28 831 -11 z m 758 147 b 629 128 721 133 676 128 b 263 496 396 128 263 278 b 629 864 263 714 396 864 b 996 496 863 864 996 714 b 897 228 996 385 961 292 l 765 340 l 667 226 z "},"R":{"ha":1132,"x_min":0,"x_max":0,"o":"m 101 0 l 310 0 l 310 392 l 664 392 b 836 150 817 392 836 292 b 861 0 836 78 846 28 l 1086 0 b 1044 213 1046 54 1044 165 b 900 481 1044 353 1018 456 l 900 483 b 1064 722 993 513 1064 593 b 729 992 1064 876 982 992 l 101 992 z m 310 547 l 310 836 l 669 836 b 847 693 779 836 847 796 b 669 547 847 582 785 547 z "},"S":{"ha":1029,"x_min":0,"x_max":0,"o":"m 49 713 b 779 274 49 306 779 519 b 535 128 779 165 661 128 b 250 321 364 128 256 190 l 25 321 b 528 -28 28 113 171 -28 b 1004 294 739 -28 1004 39 b 265 728 1004 718 265 494 b 496 864 265 821 357 864 b 746 704 669 864 739 781 l 971 704 b 486 1019 944 992 639 1019 b 49 713 244 1019 49 933 z "},"T":{"ha":953,"x_min":0,"x_max":0,"o":"m 372 0 l 581 0 l 581 836 l 953 836 l 953 992 l 0 992 l 0 836 l 372 836 z "},"U":{"ha":1157,"x_min":0,"x_max":0,"o":"m 93 426 b 578 -28 93 263 99 -28 b 1064 426 1058 -28 1064 263 l 1064 992 l 856 992 l 856 432 b 578 128 856 294 850 128 b 301 432 307 128 301 294 l 301 992 l 93 992 z "},"V":{"ha":1054,"x_min":0,"x_max":0,"o":"m 419 0 l 640 0 l 1076 992 l 851 992 l 535 197 l 211 992 l -22 992 z "},"W":{"ha":1594,"x_min":0,"x_max":0,"o":"m 321 0 l 546 0 l 794 761 l 797 761 l 1044 0 l 1269 0 l 1603 992 l 1386 992 l 1158 222 l 1156 222 l 907 992 l 690 992 l 443 222 l 440 222 l 217 992 l -8 992 z "},"X":{"ha":1029,"x_min":0,"x_max":0,"o":"m -17 0 l 240 0 l 513 365 l 782 0 l 1046 0 l 640 511 l 1025 992 l 774 992 l 517 647 l 269 992 l 10 992 l 388 511 z "},"Y":{"ha":1056,"x_min":0,"x_max":0,"o":"m 424 0 l 632 0 l 632 378 l 1065 992 l 811 992 l 528 550 l 244 992 l -10 992 l 424 378 z "},"Z":{"ha":1003,"x_min":0,"x_max":0,"o":"m 21 0 l 982 0 l 982 164 l 301 164 l 978 840 l 978 992 l 68 992 l 68 836 l 704 836 l 21 151 z "},"[":{"ha":592,"x_min":0,"x_max":0,"o":"m 144 -264 l 525 -264 l 525 -125 l 319 -125 l 319 853 l 525 853 l 525 992 l 144 992 z "},"\\":{"ha":564,"x_min":0,"x_max":0,"o":"m 414 -28 l 572 -28 l 150 1019 l -8 1019 z "},"]":{"ha":592,"x_min":0,"x_max":0,"o":"m 272 -125 l 67 -125 l 67 -264 l 447 -264 l 447 992 l 67 992 l 67 853 l 272 853 z "},"^":{"ha":833,"x_min":0,"x_max":0,"o":"m 611 400 l 750 400 l 474 961 l 360 961 l 83 400 l 222 400 l 417 797 z "},"_":{"ha":694,"x_min":0,"x_max":0,"o":"m 694 -174 l 694 -104 l 0 -104 l 0 -174 z "},"‘":{"ha":489,"x_min":0,"x_max":0,"o":"m 353 760 l 250 760 b 353 910 256 844 268 882 l 353 992 b 136 713 196 971 136 858 l 136 563 l 353 563 z "},"a":{"ha":978,"x_min":0,"x_max":0,"o":"m 868 517 b 472 764 868 613 857 764 b 83 511 254 764 111 704 l 271 511 b 472 633 278 593 346 633 b 681 528 583 633 681 613 b 376 435 681 471 651 461 b 46 203 254 424 46 406 b 346 -28 46 58 154 -28 b 692 74 561 -28 654 38 b 836 -21 697 46 711 -21 b 972 -4 901 -21 935 -11 l 972 131 b 910 126 957 128 928 126 b 868 168 897 126 868 128 z m 676 296 b 400 94 676 133 503 94 b 246 210 335 94 246 113 b 425 321 246 272 281 304 b 676 367 561 336 621 343 z "},"b":{"ha":1003,"x_min":0,"x_max":0,"o":"m 508 608 b 757 365 689 608 757 488 b 508 119 757 240 689 119 b 261 365 329 119 261 240 b 508 608 261 488 329 608 z m 78 0 l 269 0 l 269 101 l 272 101 b 554 -28 286 57 401 -28 b 957 365 835 -28 957 176 b 554 756 957 551 835 756 b 272 631 439 756 329 719 l 269 631 l 269 1008 l 78 1008 z "},"c":{"ha":951,"x_min":0,"x_max":0,"o":"m 906 478 b 501 764 865 726 613 764 b 46 368 217 764 46 606 b 501 -28 46 165 172 -28 b 910 282 553 -28 865 -24 l 710 282 b 481 119 669 178 629 119 b 246 368 315 119 246 240 b 501 617 246 496 324 617 b 706 478 611 617 692 554 z "},"d":{"ha":1003,"x_min":0,"x_max":0,"o":"m 246 365 b 494 608 246 488 314 608 b 742 365 674 608 742 488 b 494 119 742 240 674 119 b 246 365 314 119 246 240 z m 925 1008 l 733 1008 l 733 631 l 731 631 b 449 756 674 719 564 756 b 46 365 168 756 46 551 b 449 -28 46 176 168 -28 b 731 101 601 -28 717 57 l 733 101 l 733 0 l 925 0 z "},"e":{"ha":1003,"x_min":0,"x_max":0,"o":"m 949 319 l 949 347 b 497 764 949 563 824 764 b 54 361 236 764 54 607 b 510 -28 54 165 178 -28 b 932 217 790 -28 890 135 l 724 217 b 504 111 686 156 631 111 b 254 319 314 111 258 238 z m 254 442 b 500 633 286 592 411 633 b 749 442 594 633 725 589 z "},"f":{"ha":514,"x_min":0,"x_max":0,"o":"m 136 0 l 328 0 l 328 597 l 529 597 l 529 736 l 328 736 l 328 793 b 431 881 328 860 343 881 b 529 875 467 881 508 878 l 529 1014 b 357 1019 485 1017 440 1019 b 136 831 157 1019 136 913 l 136 736 l -15 736 l -15 597 l 136 597 z "},"g":{"ha":1029,"x_min":0,"x_max":0,"o":"m 240 383 b 490 608 240 515 347 608 b 754 386 589 608 754 563 b 507 156 754 250 653 156 b 240 383 306 156 240 275 z m 754 739 l 754 631 l 751 631 b 449 756 707 708 597 756 b 40 381 165 756 40 569 b 450 8 40 107 256 8 b 750 126 563 8 658 39 l 754 126 l 754 38 b 503 -175 754 -58 722 -175 b 276 -65 386 -175 296 -160 l 76 -65 b 508 -306 93 -256 281 -306 b 946 25 833 -306 946 -150 l 946 739 z "},"h":{"ha":953,"x_min":0,"x_max":0,"o":"m 78 0 l 269 0 l 269 396 b 499 608 269 553 399 608 b 683 439 657 608 683 518 l 683 0 l 875 0 l 875 500 b 563 756 875 699 721 756 b 272 625 432 756 335 704 l 269 625 l 269 1008 l 78 1008 z "},"i":{"ha":358,"x_min":0,"x_max":0,"o":"m 83 0 l 275 0 l 275 736 l 83 736 z m 83 853 l 275 853 l 275 1008 l 83 1008 z "},"j":{"ha":358,"x_min":0,"x_max":0,"o":"m 83 -28 b -6 -133 83 -114 50 -133 b -72 -131 -35 -133 -53 -132 l -72 -278 b 24 -281 -39 -279 -7 -281 b 275 -33 221 -281 275 -208 l 275 736 l 83 736 z m 83 853 l 275 853 l 275 1008 l 83 1008 z "},"k":{"ha":875,"x_min":0,"x_max":0,"o":"m 78 0 l 269 0 l 269 238 l 390 336 l 651 0 l 910 0 l 540 458 l 881 736 l 610 736 l 269 442 l 269 1008 l 78 1008 z "},"l":{"ha":358,"x_min":0,"x_max":0,"o":"m 83 0 l 275 0 l 275 1008 l 83 1008 z "},"m":{"ha":1492,"x_min":0,"x_max":0,"o":"m 650 0 l 842 0 l 842 410 b 1042 608 842 571 975 608 b 1222 439 1213 608 1222 515 l 1222 0 l 1414 0 l 1414 489 b 1121 756 1414 714 1239 756 b 822 619 967 756 869 688 b 563 756 771 740 649 756 b 272 625 432 756 335 704 l 269 625 l 269 736 l 78 736 l 78 0 l 269 0 l 269 410 b 469 608 269 571 403 608 b 650 439 640 608 650 515 z "},"n":{"ha":953,"x_min":0,"x_max":0,"o":"m 78 0 l 269 0 l 269 396 b 499 608 269 553 399 608 b 683 439 657 608 683 518 l 683 0 l 875 0 l 875 500 b 563 756 875 699 721 756 b 272 625 432 756 335 704 l 269 625 l 269 736 l 78 736 z "},"o":{"ha":1003,"x_min":0,"x_max":0,"o":"m 246 368 b 501 617 246 496 315 617 b 757 368 688 617 757 496 b 501 119 757 240 688 119 b 246 368 315 119 246 240 z m 46 368 b 501 -28 46 165 172 -28 b 957 368 831 -28 957 165 b 501 764 957 571 831 764 b 46 368 172 764 46 571 z "},"p":{"ha":1003,"x_min":0,"x_max":0,"o":"m 508 608 b 757 365 689 608 757 488 b 508 119 757 240 689 119 b 261 365 329 119 261 240 b 508 608 261 488 329 608 z m 78 -281 l 269 -281 l 269 101 l 272 101 b 554 -28 286 57 401 -28 b 957 365 835 -28 957 176 b 554 756 957 551 835 756 b 272 631 439 756 329 719 l 269 631 l 269 736 l 78 736 z "},"q":{"ha":1003,"x_min":0,"x_max":0,"o":"m 246 365 b 494 608 246 488 314 608 b 742 365 674 608 742 488 b 494 119 742 240 674 119 b 246 365 314 119 246 240 z m 733 631 l 731 631 b 449 756 674 719 564 756 b 46 365 168 756 46 551 b 449 -28 46 176 168 -28 b 731 101 601 -28 717 57 l 733 101 l 733 -281 l 925 -281 l 925 736 l 733 736 z "},"r":{"ha":643,"x_min":0,"x_max":0,"o":"m 78 0 l 269 0 l 269 356 b 504 578 269 526 407 578 b 626 560 538 578 574 576 l 626 749 b 550 756 601 753 579 756 b 272 593 403 756 324 676 l 269 593 l 269 736 l 78 736 z "},"s":{"ha":900,"x_min":0,"x_max":0,"o":"m 40 231 b 453 -28 47 6 296 -28 b 860 224 681 -28 860 36 b 460 453 860 394 701 418 b 257 549 275 479 257 489 b 424 633 257 588 315 633 b 632 511 489 633 617 621 l 832 511 b 433 764 821 747 547 764 b 65 526 310 764 65 736 b 413 301 65 358 185 332 b 651 197 619 274 651 254 b 451 103 651 128 547 103 b 249 231 382 103 254 119 z "},"t":{"ha":565,"x_min":0,"x_max":0,"o":"m 138 206 b 389 -17 138 67 156 -17 b 536 -6 447 -17 485 -12 l 536 133 b 399 131 490 132 446 131 b 329 261 333 131 329 176 l 329 597 l 529 597 l 529 736 l 329 736 l 329 964 l 138 964 l 138 736 l -15 736 l -15 597 l 138 597 z "},"u":{"ha":953,"x_min":0,"x_max":0,"o":"m 78 244 b 390 -28 78 29 232 -28 b 681 103 521 -28 618 24 l 683 103 l 683 0 l 875 0 l 875 736 l 683 736 l 683 332 b 460 119 683 175 544 119 b 269 317 296 119 269 204 l 269 736 l 78 736 z "},"v":{"ha":875,"x_min":0,"x_max":0,"o":"m 335 0 l 543 0 l 879 736 l 663 736 l 435 189 l 215 736 l -1 736 z "},"w":{"ha":1364,"x_min":0,"x_max":0,"o":"m 285 0 l 501 0 l 681 511 l 683 511 l 863 0 l 1079 0 l 1358 736 l 1150 736 l 961 197 l 958 197 l 782 736 l 582 736 l 406 197 l 403 197 l 214 736 l 6 736 z "},"x":{"ha":900,"x_min":0,"x_max":0,"o":"m -11 0 l 236 0 l 449 261 l 656 0 l 911 0 l 579 379 l 889 736 l 642 736 l 449 497 l 260 736 l 13 736 l 319 379 z "},"y":{"ha":849,"x_min":0,"x_max":0,"o":"m 329 13 l 286 -76 b 175 -133 264 -122 226 -133 b 79 -131 133 -133 94 -132 l 79 -278 b 199 -281 117 -279 167 -281 b 464 -131 358 -281 406 -257 l 865 736 l 661 736 l 431 210 l 194 736 l -14 736 z "},"z":{"ha":849,"x_min":0,"x_max":0,"o":"m 31 0 l 818 0 l 818 147 l 294 147 l 800 606 l 800 736 l 57 736 l 57 589 l 526 589 l 31 139 z "},"{":{"ha":592,"x_min":0,"x_max":0,"o":"m 518 -125 l 444 -125 b 375 -18 388 -125 375 -69 l 375 189 b 249 363 375 324 283 356 l 249 365 b 375 539 283 372 375 404 l 375 746 b 444 853 375 797 388 853 l 518 853 l 518 992 l 357 992 b 200 815 290 992 200 932 l 200 578 b 82 433 200 486 136 435 l 82 294 b 200 149 136 293 200 242 l 200 -87 b 357 -264 200 -204 290 -264 l 518 -264 z "},"|":{"ha":308,"x_min":0,"x_max":0,"o":"m 81 -28 l 228 -28 l 228 1019 l 81 1019 z "},"}":{"ha":592,"x_min":0,"x_max":0,"o":"m 74 853 l 147 853 b 217 746 204 853 217 797 l 217 539 b 343 365 217 404 308 372 l 343 363 b 217 189 308 356 217 324 l 217 -18 b 147 -125 217 -69 204 -125 l 74 -125 l 74 -264 l 235 -264 b 392 -87 301 -264 392 -204 l 392 150 b 510 294 392 242 456 293 l 510 433 b 392 579 456 435 392 486 l 392 815 b 235 992 392 932 301 992 l 74 992 z "},"~":{"ha":833,"x_min":0,"x_max":0,"o":"m 683 471 b 561 368 656 428 619 368 b 426 418 525 368 478 393 b 265 465 374 442 318 465 b 92 346 182 465 129 417 l 150 232 b 267 335 172 282 206 335 b 422 286 328 335 376 310 b 568 238 468 263 514 238 b 742 357 651 238 697 294 z "},"¡":{"ha":489,"x_min":0,"x_max":0,"o":"m 136 -256 l 353 -256 l 353 10 l 314 446 l 175 446 l 136 10 z m 136 539 l 353 539 l 353 736 l 136 736 z "},"¢":{"ha":1028,"x_min":0,"x_max":0,"o":"m 489 125 b 283 372 340 149 283 244 b 489 613 283 479 340 592 z m 561 876 l 489 876 l 489 760 b 83 378 197 739 83 560 b 489 -22 83 182 197 -1 l 489 -167 l 561 -167 l 561 -22 b 944 288 633 -19 906 4 l 749 288 b 561 125 719 219 686 136 l 561 617 b 743 478 660 608 731 549 l 943 478 b 561 764 906 711 679 758 z "},"£":{"ha":1028,"x_min":0,"x_max":0,"o":"m 67 426 l 182 426 b 207 324 194 399 207 356 b 64 118 207 229 140 163 l 146 -22 b 350 33 196 11 267 33 b 693 -22 453 33 603 -22 b 964 57 799 -22 903 11 l 907 215 b 693 150 843 178 768 150 b 425 189 601 150 515 189 b 289 160 374 189 335 179 l 289 163 b 399 338 347 196 399 265 b 390 426 399 374 396 400 l 631 426 l 631 532 l 351 532 b 317 660 331 575 317 622 b 531 828 317 760 403 828 b 742 649 654 828 735 771 l 950 649 b 518 983 950 913 743 983 b 108 669 318 983 108 875 b 143 532 108 629 119 581 l 67 532 z "},"⁄":{"ha":232,"x_min":0,"x_max":0,"o":"m -239 -22 l -108 -22 l 471 983 l 340 983 z "},"¥":{"ha":1028,"x_min":0,"x_max":0,"o":"m 414 0 l 614 0 l 614 194 l 856 194 l 856 300 l 614 300 l 614 378 l 640 417 l 856 417 l 856 522 l 714 522 l 1022 961 l 775 961 l 514 550 l 253 961 l 6 961 l 314 522 l 172 522 l 172 417 l 388 417 l 414 378 l 414 300 l 172 300 l 172 194 l 414 194 z "},"ƒ":{"ha":1028,"x_min":0,"x_max":0,"o":"m 214 436 l 390 436 l 306 14 b 168 -142 286 -83 274 -142 b 90 -133 146 -142 118 -137 l 63 -269 b 197 -281 107 -274 163 -281 b 489 -33 385 -281 453 -214 l 582 436 l 760 436 l 783 542 l 603 542 l 636 700 b 763 844 653 781 669 844 b 850 839 797 844 824 842 l 876 975 b 754 983 836 978 794 983 b 465 793 603 983 500 954 l 411 542 l 236 542 z "},"§":{"ha":1029,"x_min":0,"x_max":0,"o":"m 115 15 b 524 -264 154 -210 333 -264 b 901 1 661 -264 901 -224 b 833 138 901 65 883 99 b 975 343 921 182 975 242 b 779 575 975 468 883 542 l 460 679 b 329 779 411 694 329 718 b 485 881 329 857 413 881 b 682 751 575 881 675 867 l 882 751 b 503 1019 869 949 693 1019 b 138 775 329 1019 138 958 b 201 635 138 722 160 669 b 54 436 110 610 54 531 b 265 189 54 297 142 232 l 589 78 b 701 -25 638 61 701 36 b 521 -125 701 -115 589 -125 b 315 15 433 -125 339 -94 z m 661 438 b 792 314 715 418 792 386 b 722 206 792 263 760 233 l 415 315 b 229 447 357 336 229 365 b 307 560 229 503 260 533 z "},"¤":{"ha":833,"x_min":0,"x_max":0,"o":"m 50 749 l 129 669 b 72 481 93 617 72 551 b 129 292 72 410 93 344 l 50 213 l 149 114 l 228 193 b 417 136 283 157 347 136 b 606 193 488 136 553 157 l 685 114 l 783 213 l 704 292 b 761 481 740 347 761 411 b 704 669 761 551 740 617 l 783 749 l 685 847 l 606 768 b 417 825 553 804 486 825 b 228 768 347 825 283 804 l 149 847 z m 211 481 b 417 686 211 594 303 686 b 622 481 531 686 622 594 b 417 275 622 367 531 275 b 211 481 303 275 211 367 z "},"'":{"ha":489,"x_min":0,"x_max":0,"o":"m 175 563 l 314 563 l 314 992 l 175 992 z "},"“":{"ha":744,"x_min":0,"x_max":0,"o":"m 311 760 l 208 760 b 311 910 214 844 226 882 l 311 992 b 94 713 154 971 94 858 l 94 563 l 311 563 z m 650 760 l 547 760 b 650 910 553 844 565 882 l 650 992 b 433 713 493 971 433 858 l 433 563 l 650 563 z "},"«":{"ha":824,"x_min":0,"x_max":0,"o":"m 106 303 l 367 110 l 367 274 l 203 392 l 367 513 l 367 676 l 106 481 z m 438 303 l 699 110 l 699 274 l 535 392 l 699 513 l 699 676 l 438 481 z "},"‹":{"ha":489,"x_min":0,"x_max":0,"o":"m 106 303 l 367 111 l 367 275 l 203 392 l 367 511 l 367 675 l 106 481 z "},"›":{"ha":489,"x_min":0,"x_max":0,"o":"m 383 481 l 122 672 l 122 508 l 286 392 l 122 272 l 122 108 l 383 303 z "},"ﬁ":{"ha":875,"x_min":0,"x_max":0,"o":"m 600 0 l 792 0 l 792 736 l 600 736 z m 600 853 l 792 853 l 792 1008 l 600 1008 z m 136 0 l 328 0 l 328 597 l 529 597 l 529 736 l 328 736 l 328 793 b 431 881 328 860 343 881 b 529 875 467 881 508 878 l 529 1014 b 357 1019 485 1017 440 1019 b 136 831 157 1019 136 913 l 136 736 l -15 736 l -15 597 l 136 597 z "},"ﬂ":{"ha":875,"x_min":0,"x_max":0,"o":"m 600 0 l 792 0 l 792 1008 l 600 1008 z m 136 0 l 328 0 l 328 597 l 529 597 l 529 736 l 328 736 l 328 793 b 431 881 328 860 343 881 b 529 875 467 881 508 878 l 529 1014 b 357 1019 485 1017 440 1019 b 136 831 157 1019 136 913 l 136 736 l -15 736 l -15 597 l 136 597 z "},"–":{"ha":694,"x_min":0,"x_max":0,"o":"m 0 310 l 694 310 l 694 474 l 0 474 z "},"†":{"ha":1028,"x_min":0,"x_max":0,"o":"m 418 -264 l 610 -264 l 610 528 l 939 528 l 939 683 l 610 683 l 610 992 l 418 992 l 418 683 l 89 683 l 89 528 l 418 528 z "},"‡":{"ha":1028,"x_min":0,"x_max":0,"o":"m 418 -264 l 610 -264 l 610 28 l 939 28 l 939 175 l 610 175 l 610 546 l 939 546 l 939 693 l 610 693 l 610 992 l 418 992 l 418 693 l 89 693 l 89 546 l 418 546 l 418 175 l 89 175 l 89 28 l 418 28 z "},"·":{"ha":489,"x_min":0,"x_max":0,"o":"m 121 404 b 244 281 121 340 176 281 b 368 404 310 281 368 339 b 244 528 368 471 310 528 b 121 404 176 528 121 469 z "},"¶":{"ha":833,"x_min":0,"x_max":0,"o":"m 329 -264 l 468 -264 l 468 869 l 611 869 l 611 -264 l 750 -264 l 750 992 l 357 992 b 29 729 163 992 29 922 b 329 467 29 571 144 468 z "},"•":{"ha":694,"x_min":0,"x_max":0,"o":"m 100 496 b 347 247 100 358 210 247 b 596 496 485 247 596 358 b 347 743 596 633 485 743 b 100 496 210 743 100 633 z "},"‚":{"ha":489,"x_min":0,"x_max":0,"o":"m 136 0 l 239 0 b 136 -150 233 -85 221 -122 l 136 -232 b 353 47 293 -211 353 -99 l 353 197 l 136 197 z "},"„":{"ha":744,"x_min":0,"x_max":0,"o":"m 433 0 l 536 0 b 433 -150 531 -85 518 -122 l 433 -232 b 650 47 590 -211 650 -99 l 650 197 l 433 197 z m 94 0 l 197 0 b 94 -150 192 -85 179 -122 l 94 -232 b 311 47 251 -211 311 -99 l 311 197 l 94 197 z "},"”":{"ha":744,"x_min":0,"x_max":0,"o":"m 433 794 l 536 794 b 433 644 531 710 518 672 l 433 563 b 650 842 590 583 650 696 l 650 992 l 433 992 z m 94 794 l 197 794 b 94 644 192 710 179 672 l 94 563 b 311 842 251 583 311 696 l 311 992 l 94 992 z "},"»":{"ha":824,"x_min":0,"x_max":0,"o":"m 718 481 l 457 672 l 457 508 l 621 392 l 457 272 l 457 108 l 718 303 z m 386 481 l 125 672 l 125 508 l 289 392 l 125 272 l 125 108 l 386 303 z "},"…":{"ha":1389,"x_min":0,"x_max":0,"o":"m 124 0 l 340 0 l 340 197 l 124 197 z m 586 0 l 803 0 l 803 197 l 586 197 z m 1049 0 l 1265 0 l 1265 197 l 1049 197 z "},"‰":{"ha":1621,"x_min":0,"x_max":0,"o":"m 1268 233 b 1374 392 1268 314 1286 392 b 1479 233 1461 392 1479 314 b 1374 75 1479 153 1461 75 b 1268 233 1286 75 1268 153 z m 186 -22 l 317 -22 l 896 983 l 765 983 z m 142 728 b 247 886 142 808 160 886 b 353 728 335 886 353 808 b 247 569 353 647 335 569 b 142 728 160 569 142 647 z m 1138 233 b 1374 -22 1138 74 1215 -22 b 1610 233 1532 -22 1610 74 b 1374 489 1610 393 1532 489 b 1138 233 1215 489 1138 393 z m 11 728 b 247 472 11 568 89 472 b 483 728 406 472 483 568 b 247 983 483 888 406 983 b 11 728 89 983 11 888 z m 603 233 b 839 -22 603 74 681 -22 b 1075 233 997 -22 1075 74 b 839 489 1075 393 997 489 b 603 233 681 489 603 393 z m 733 233 b 839 392 733 314 751 392 b 944 233 926 392 944 314 b 839 75 944 153 926 75 b 733 233 751 75 733 153 z "},"¿":{"ha":978,"x_min":0,"x_max":0,"o":"m 422 447 b 93 31 422 288 93 276 b 501 -272 93 -108 189 -272 b 915 65 765 -272 907 -153 l 715 65 b 508 -125 713 -79 600 -125 b 301 18 418 -125 301 -94 b 614 425 301 204 614 199 l 614 447 z m 410 539 l 626 539 l 626 736 l 410 736 z "},"`":{"ha":335,"x_min":0,"x_max":0,"o":"m 160 1035 l -76 1035 l 118 838 l 283 838 z "},"´":{"ha":335,"x_min":0,"x_max":0,"o":"m 51 838 l 217 838 l 411 1035 l 175 1035 z "},"ˆ":{"ha":335,"x_min":0,"x_max":0,"o":"m 283 1035 l 51 1035 l -140 838 l 51 838 l 167 953 l 283 838 l 475 838 z "},"˜":{"ha":335,"x_min":0,"x_max":0,"o":"m -40 839 b 26 897 -31 872 -12 897 b 308 836 86 897 219 836 b 435 894 374 836 411 860 b 476 1019 458 931 468 976 l 376 1019 b 310 958 365 981 354 958 b 183 989 276 958 231 974 b 51 1019 136 1004 89 1019 b -142 839 -64 1019 -121 950 z "},"¯":{"ha":335,"x_min":0,"x_max":0,"o":"m -136 876 l 471 876 l 471 999 l -136 999 z "},"˘":{"ha":335,"x_min":0,"x_max":0,"o":"m -96 1035 b 169 833 -86 911 -14 833 b 431 1035 329 833 424 904 l 317 1035 b 176 947 313 1000 279 947 b 18 1035 101 947 22 968 z "},"˙":{"ha":335,"x_min":0,"x_max":0,"o":"m 72 838 l 264 838 l 264 993 l 72 993 z "},"¨":{"ha":335,"x_min":0,"x_max":0,"o":"m -110 838 l 82 838 l 82 993 l -110 993 z m 253 838 l 444 838 l 444 993 l 253 993 z "},"˚":{"ha":335,"x_min":0,"x_max":0,"o":"m 0 974 b 168 806 0 881 75 806 b 336 974 261 806 336 881 b 168 1142 336 1067 261 1142 b 0 974 75 1142 0 1067 z m 81 974 b 168 1061 81 1022 119 1061 b 256 974 217 1061 256 1022 b 168 886 256 925 217 886 b 81 974 119 886 81 925 z "},"¸":{"ha":335,"x_min":0,"x_max":0,"o":"m 53 -114 l 78 -142 b 140 -131 94 -136 110 -131 b 192 -174 168 -131 192 -147 b 117 -217 192 -210 144 -217 b 17 -199 83 -217 50 -207 l -4 -260 b 158 -281 69 -279 117 -281 b 339 -167 253 -281 339 -246 b 199 -67 339 -81 254 -67 b 158 -71 186 -67 174 -69 l 203 0 l 124 0 z "},"˝":{"ha":335,"x_min":0,"x_max":0,"o":"m 235 838 l 400 838 l 594 1035 l 358 1035 z m -128 838 l 38 838 l 232 1035 l -4 1035 z "},"˛":{"ha":335,"x_min":0,"x_max":0,"o":"m 146 0 b -1 -168 79 -33 -1 -94 b 150 -281 -1 -239 40 -281 b 296 -257 207 -281 264 -268 l 279 -189 b 176 -208 257 -199 225 -208 b 104 -149 138 -208 104 -190 b 240 0 104 -100 171 -42 z "},"ˇ":{"ha":335,"x_min":0,"x_max":0,"o":"m 475 1035 l 283 1035 l 167 919 l 51 1035 l -140 1035 l 51 838 l 283 838 z "},"—":{"ha":1389,"x_min":0,"x_max":0,"o":"m 0 310 l 1389 310 l 1389 474 l 0 474 z "},"Æ":{"ha":1569,"x_min":0,"x_max":0,"o":"m -32 0 l 193 0 l 347 258 l 738 258 l 738 0 l 1514 0 l 1514 156 l 929 156 l 929 431 l 1488 431 l 1488 586 l 929 586 l 929 836 l 1504 836 l 1504 992 l 550 992 z m 738 406 l 428 406 l 671 836 l 738 836 z "},"ª":{"ha":636,"x_min":0,"x_max":0,"o":"m 550 835 b 294 983 550 893 544 983 b 42 829 160 983 61 951 l 164 829 b 294 906 168 881 213 906 b 428 842 367 906 428 893 b 232 789 428 806 411 804 b 17 650 153 782 17 771 b 213 511 17 563 88 511 b 436 568 342 511 410 546 b 531 511 440 551 450 511 b 619 521 574 511 594 517 l 619 601 b 579 600 610 600 590 600 b 550 625 571 600 550 600 z m 428 706 b 247 585 428 608 314 585 b 147 654 206 585 147 596 b 272 721 147 692 175 713 b 428 747 356 726 386 731 z "},"Ł":{"ha":926,"x_min":0,"x_max":0,"o":"m 101 0 l 913 0 l 913 164 l 310 164 l 310 443 l 588 663 l 588 818 l 310 599 l 310 992 l 101 992 l 101 433 l 0 353 l 0 197 l 101 278 z "},"Ø":{"ha":1258,"x_min":0,"x_max":0,"o":"m 322 276 b 263 496 282 338 263 411 b 629 864 263 714 396 864 b 882 779 735 864 821 833 z m 938 714 b 996 496 976 654 996 581 b 629 128 996 278 863 128 b 378 213 524 128 438 158 z m 43 26 l 97 -39 l 233 83 b 629 -28 326 14 456 -28 b 1213 496 1049 -28 1213 217 b 1089 850 1213 631 1175 756 l 1215 964 l 1160 1028 l 1025 907 b 629 1019 933 978 804 1019 b 46 496 210 1019 46 775 b 171 140 46 361 85 235 z "},"Œ":{"ha":1621,"x_min":0,"x_max":0,"o":"m 801 315 b 553 128 801 263 715 128 b 263 490 336 128 263 315 b 557 864 263 728 381 864 b 801 707 725 864 801 731 z m 807 0 l 1551 0 l 1551 156 l 993 156 l 993 431 l 1524 431 l 1524 586 l 993 586 l 993 836 l 1542 836 l 1542 992 l 807 992 l 807 901 l 804 901 b 511 1019 769 953 676 1019 b 46 499 199 1019 46 765 b 504 -28 46 124 279 -28 b 804 96 643 -28 757 32 l 807 96 z "},"º":{"ha":651,"x_min":0,"x_max":0,"o":"m 168 749 b 326 886 168 814 214 886 b 483 749 439 886 483 814 b 326 608 483 681 439 608 b 168 749 214 608 168 681 z m 29 749 b 326 511 29 626 113 511 b 622 749 540 511 622 626 b 326 983 622 868 540 983 b 29 749 113 983 29 868 z "},"æ":{"ha":1543,"x_min":0,"x_max":0,"o":"m 264 511 b 481 633 275 624 393 633 b 667 525 594 633 667 603 b 429 436 667 451 644 450 b 46 210 217 422 46 392 b 358 -28 46 3 251 -28 b 742 117 597 -28 692 64 b 1060 -28 797 42 892 -28 b 1478 217 1383 -28 1458 171 l 1286 217 b 1065 103 1261 178 1217 103 b 833 319 933 103 833 163 l 1489 319 l 1489 346 b 1078 764 1489 613 1325 764 b 786 661 971 764 861 738 b 458 764 708 758 556 764 b 81 511 278 764 93 706 z m 833 442 b 1069 633 847 579 950 633 b 1297 442 1204 633 1288 546 z m 669 315 b 399 103 669 158 544 103 b 238 204 339 103 238 118 b 353 306 238 260 267 296 b 669 350 501 322 607 331 z "},"ı":{"ha":358,"x_min":0,"x_max":0,"o":"m 83 0 l 275 0 l 275 736 l 83 736 z "},"ł":{"ha":358,"x_min":0,"x_max":0,"o":"m 83 0 l 275 0 l 275 532 l 358 640 l 358 788 l 278 679 l 275 679 l 275 1008 l 83 1008 l 83 447 l 0 339 l 0 192 l 81 300 l 83 300 z "},"ø":{"ha":1003,"x_min":0,"x_max":0,"o":"m 285 224 b 246 368 257 267 246 317 b 501 617 246 496 315 617 b 674 563 578 617 635 596 z m 42 11 l 86 -42 l 197 56 b 501 -28 268 4 368 -28 b 957 368 831 -28 957 165 b 860 633 957 465 928 561 l 961 721 l 915 774 l 808 679 b 501 764 738 732 636 764 b 46 368 172 764 46 571 b 144 101 46 269 75 175 z m 719 511 b 757 368 746 469 757 419 b 501 119 757 240 688 119 b 331 172 426 119 371 139 z "},"œ":{"ha":1569,"x_min":0,"x_max":0,"o":"m 1515 319 l 1515 346 b 1104 764 1515 613 1351 764 b 793 631 1022 764 893 751 b 467 764 714 738 583 764 b 46 371 164 764 46 567 b 463 -28 46 107 219 -28 b 788 107 604 -28 715 19 b 1099 -28 842 33 943 -28 b 1500 217 1393 -28 1482 156 l 1308 217 b 1100 103 1268 139 1199 103 b 872 319 947 103 876 206 z m 238 376 b 474 625 238 564 372 625 b 717 365 657 625 717 486 b 472 111 717 265 668 111 b 238 376 363 111 238 172 z m 872 442 b 1096 633 893 554 958 633 b 1324 442 1231 633 1314 546 z "},"ß":{"ha":978,"x_min":0,"x_max":0,"o":"m 269 664 b 479 872 269 778 289 872 b 664 739 583 872 664 833 b 489 610 664 640 578 610 l 406 610 l 406 479 l 490 479 b 715 310 594 479 715 450 b 492 131 715 167 606 131 b 392 139 446 131 429 132 l 392 0 b 519 -17 421 -11 506 -17 b 915 310 765 -17 915 97 b 725 561 915 465 822 544 l 725 564 b 864 753 836 600 864 688 b 475 1019 864 972 638 1019 b 78 731 267 1019 78 944 l 78 0 l 269 0 z "},"÷":{"ha":833,"x_min":0,"x_max":0,"o":"m 65 282 l 768 282 l 768 421 l 65 421 z m 300 65 b 417 -51 300 1 353 -51 b 533 65 481 -51 533 1 b 417 182 533 129 481 182 b 300 65 353 182 300 129 z m 300 638 b 417 521 300 574 353 521 b 533 638 481 521 533 574 b 417 754 533 701 481 754 b 300 638 353 754 300 701 z "},"¾":{"ha":1543,"x_min":0,"x_max":0,"o":"m 1246 238 l 1019 238 l 1246 464 z m 882 124 l 1246 124 l 1246 0 l 1393 0 l 1393 124 l 1493 124 l 1493 238 l 1393 238 l 1393 586 l 1225 586 l 882 233 z m 260 651 l 331 651 b 468 571 447 651 468 601 b 321 486 468 519 400 486 b 176 588 251 486 182 513 l 38 588 b 325 381 39 421 190 381 b 624 572 590 381 624 510 b 499 706 624 638 575 689 l 499 708 b 596 814 572 728 596 776 b 336 983 596 900 535 983 b 56 786 197 983 68 936 l 194 786 b 317 878 197 828 233 878 b 449 806 413 878 449 836 b 340 749 449 771 413 749 l 260 749 z m 426 -22 l 557 -22 l 1136 986 l 1006 986 z "},"¼":{"ha":1543,"x_min":0,"x_max":0,"o":"m 1246 238 l 1019 238 l 1246 464 z m 882 124 l 1246 124 l 1246 0 l 1393 0 l 1393 124 l 1493 124 l 1493 238 l 1393 238 l 1393 586 l 1225 586 l 882 233 z m 343 -22 l 474 -22 l 1053 983 l 922 983 z m 188 397 l 335 397 l 335 983 l 228 983 b 46 878 208 893 107 878 l 8 878 l 8 772 l 188 772 z "},"¹":{"ha":451,"x_min":0,"x_max":0,"o":"m 188 397 l 335 397 l 335 983 l 228 983 b 46 878 208 893 107 878 l 8 878 l 8 772 l 188 772 z "},"×":{"ha":833,"x_min":0,"x_max":0,"o":"m 417 258 l 647 29 l 746 128 l 517 357 l 746 588 l 649 686 l 417 456 l 185 686 l 88 588 l 317 357 l 88 128 l 186 29 z "},"®":{"ha":1111,"x_min":0,"x_max":0,"o":"m 357 203 l 463 203 l 463 447 l 540 447 l 683 203 l 797 203 l 644 451 b 788 604 724 460 788 501 b 574 771 788 724 713 771 l 357 771 z m 463 690 l 563 690 b 682 613 618 690 682 679 b 561 528 682 536 628 528 l 463 528 z m 46 496 b 556 -28 46 183 286 -28 b 1065 496 825 -28 1065 183 b 556 1019 1065 808 825 1019 b 46 496 286 1019 46 808 z m 168 496 b 556 906 168 736 340 906 b 943 496 768 906 943 736 b 556 86 943 256 768 86 b 168 496 340 86 168 256 z "},"Þ":{"ha":1081,"x_min":0,"x_max":0,"o":"m 310 657 l 660 657 b 826 504 740 657 826 626 b 644 354 826 386 763 354 l 310 354 z m 101 0 l 310 0 l 310 199 l 715 199 b 1035 504 939 199 1035 353 b 713 813 1035 664 956 813 l 310 813 l 310 992 l 101 992 z "},"¦":{"ha":308,"x_min":0,"x_max":0,"o":"m 81 -28 l 228 -28 l 228 354 l 81 354 z m 81 638 l 228 638 l 228 1019 l 81 1019 z "},"Ð":{"ha":1183,"x_min":0,"x_max":0,"o":"m 101 0 l 686 0 b 1121 486 1024 0 1121 272 b 661 992 1121 764 1018 992 l 101 992 l 101 586 l 0 586 l 0 439 l 101 439 z m 310 439 l 583 439 l 583 586 l 310 586 l 310 836 l 600 836 b 913 494 694 836 913 828 b 649 156 913 204 742 156 l 310 156 z "},"½":{"ha":1543,"x_min":0,"x_max":0,"o":"m 288 -22 l 418 -22 l 997 983 l 867 983 z m 188 397 l 335 397 l 335 983 l 228 983 b 46 878 208 893 107 878 l 8 878 l 8 772 l 188 772 z m 1446 0 l 1446 114 l 1078 114 b 1458 403 1149 210 1458 193 b 1160 586 1458 521 1346 586 b 878 364 997 586 878 517 l 1033 364 b 1182 481 1040 433 1092 481 b 1303 394 1232 481 1303 457 b 878 0 1303 260 878 289 z "},"−":{"ha":833,"x_min":0,"x_max":0,"o":"m 65 282 l 768 282 l 768 421 l 65 421 z "},"ç":{"ha":951,"x_min":0,"x_max":0,"o":"m 710 282 b 481 119 669 178 629 119 b 246 368 315 119 246 240 b 501 617 246 496 324 617 b 706 478 611 617 692 554 l 906 478 b 501 764 865 726 613 764 b 46 368 217 764 46 606 b 418 -22 46 183 150 7 l 361 -114 l 386 -142 b 449 -131 403 -136 418 -131 b 500 -174 476 -131 500 -147 b 425 -217 500 -210 453 -217 b 325 -199 392 -217 358 -207 l 304 -260 b 467 -281 378 -279 425 -281 b 647 -167 561 -281 647 -246 b 507 -67 647 -81 563 -67 b 467 -71 494 -67 482 -69 l 494 -28 l 501 -28 b 910 282 553 -28 865 -24 z "},"ð":{"ha":1003,"x_min":0,"x_max":0,"o":"m 501 119 b 246 363 315 119 246 240 b 501 606 246 485 315 606 b 757 363 688 606 757 485 b 501 119 757 240 688 119 z m 200 836 l 265 776 l 449 861 b 665 686 532 814 613 756 l 663 683 b 457 736 608 725 544 736 b 46 354 172 736 46 543 b 501 -28 46 165 172 -28 b 957 381 831 -28 957 174 b 613 936 957 679 785 836 l 756 1001 l 690 1061 l 526 986 b 319 1061 461 1018 390 1044 l 217 964 b 356 907 258 950 307 932 z "},"±":{"ha":833,"x_min":0,"x_max":0,"o":"m 65 378 l 356 378 l 356 175 l 478 175 l 478 378 l 768 378 l 768 500 l 478 500 l 478 703 l 356 703 l 356 500 l 65 500 z m 65 0 l 768 0 l 768 122 l 65 122 z "},"Ç":{"ha":1208,"x_min":0,"x_max":0,"o":"m 917 379 b 611 128 900 275 828 128 b 263 478 406 128 263 271 b 597 864 263 736 406 864 b 917 625 772 864 896 775 l 1142 625 b 600 1019 1119 839 942 1019 b 46 496 210 1019 46 775 b 544 -26 46 225 207 -12 l 490 -114 l 515 -142 b 578 -131 532 -136 547 -131 b 629 -174 606 -131 629 -147 b 554 -217 629 -210 582 -217 b 454 -199 521 -217 488 -207 l 433 -260 b 596 -281 507 -279 554 -281 b 776 -167 690 -281 776 -246 b 636 -67 776 -81 692 -67 b 596 -71 624 -67 611 -69 l 624 -26 b 1142 379 993 -11 1114 190 z "},"þ":{"ha":1003,"x_min":0,"x_max":0,"o":"m 508 608 b 757 365 689 608 757 488 b 508 119 757 240 689 119 b 261 365 329 119 261 240 b 508 608 261 488 329 608 z m 78 -281 l 269 -281 l 269 101 l 272 101 b 554 -28 286 57 401 -28 b 957 365 835 -28 957 176 b 554 756 957 551 835 756 b 272 631 474 756 329 719 l 269 631 l 269 1008 l 78 1008 z "},"©":{"ha":1111,"x_min":0,"x_max":0,"o":"m 46 496 b 556 -28 46 183 286 -28 b 1065 496 825 -28 1065 183 b 556 1019 1065 808 825 1019 b 46 496 286 1019 46 808 z m 168 496 b 556 906 168 736 340 906 b 943 496 768 906 943 736 b 556 86 943 256 768 86 b 168 496 340 86 168 256 z m 700 406 b 561 289 690 331 638 289 b 382 499 450 289 382 383 b 557 708 382 618 443 708 b 700 597 638 708 689 664 l 808 597 b 563 814 789 738 688 814 b 276 499 383 814 276 679 b 567 183 276 321 390 183 b 813 406 688 183 789 265 z "},"¬":{"ha":833,"x_min":0,"x_max":0,"o":"m 629 149 l 768 149 l 768 575 l 65 575 l 65 436 l 629 436 z "},"²":{"ha":669,"x_min":0,"x_max":0,"o":"m 613 397 l 613 511 l 244 511 b 625 800 315 607 625 590 b 326 983 625 918 513 983 b 44 761 164 983 44 914 l 200 761 b 349 878 207 831 258 878 b 469 792 399 878 469 854 b 44 397 469 657 44 686 z "},"³":{"ha":669,"x_min":0,"x_max":0,"o":"m 260 651 l 331 651 b 468 571 447 651 468 601 b 321 486 468 519 400 486 b 176 588 251 486 182 513 l 38 588 b 325 381 39 421 190 381 b 624 572 590 381 624 510 b 499 706 624 638 575 689 l 499 708 b 596 814 572 728 596 776 b 336 983 596 900 535 983 b 56 786 197 983 68 936 l 194 786 b 317 878 197 828 233 878 b 449 806 413 878 449 836 b 340 749 449 771 413 749 l 260 749 z "},"™":{"ha":1375,"x_min":0,"x_max":0,"o":"m 207 419 l 329 419 l 329 894 l 499 894 l 499 992 l 38 992 l 38 894 l 207 894 z m 1157 419 l 1271 419 l 1271 992 l 1099 992 l 950 599 l 799 992 l 626 992 l 626 419 l 740 419 l 740 853 l 743 853 l 906 419 l 992 419 l 1154 853 l 1157 853 z "},"°":{"ha":556,"x_min":0,"x_max":0,"o":"m 79 785 b 278 586 79 674 167 586 b 476 785 389 586 476 674 b 278 983 476 896 389 983 b 79 785 167 983 79 896 z m 165 785 b 278 897 165 847 215 897 b 390 785 340 897 390 847 b 278 672 390 722 340 672 b 165 785 215 672 165 722 z "},"µ":{"ha":953,"x_min":0,"x_max":0,"o":"m 78 -281 l 269 -281 l 269 25 b 418 -28 292 0 353 -28 b 681 103 513 -28 618 24 l 683 103 l 683 0 l 875 0 l 875 736 l 683 736 l 683 332 b 460 119 683 175 544 119 b 269 317 296 119 269 204 l 269 736 l 78 736 z "},"Á":{"ha":1106,"x_min":0,"x_max":0,"o":"m 378 401 l 550 819 l 719 401 z m -12 0 l 213 0 l 315 246 l 782 246 l 886 0 l 1118 0 l 676 992 l 429 992 z m 438 1054 l 603 1054 l 797 1251 l 561 1251 z "},"Â":{"ha":1106,"x_min":0,"x_max":0,"o":"m 378 401 l 550 819 l 719 401 z m -12 0 l 213 0 l 315 246 l 782 246 l 886 0 l 1118 0 l 676 992 l 429 992 z m 669 1251 l 438 1251 l 246 1054 l 438 1054 l 553 1169 l 669 1054 l 861 1054 z "},"Ä":{"ha":1106,"x_min":0,"x_max":0,"o":"m 378 401 l 550 819 l 719 401 z m -12 0 l 213 0 l 315 246 l 782 246 l 886 0 l 1118 0 l 676 992 l 429 992 z m 276 1054 l 468 1054 l 468 1210 l 276 1210 z m 639 1054 l 831 1054 l 831 1210 l 639 1210 z "},"À":{"ha":1106,"x_min":0,"x_max":0,"o":"m 378 401 l 550 819 l 719 401 z m -12 0 l 213 0 l 315 246 l 782 246 l 886 0 l 1118 0 l 676 992 l 429 992 z m 546 1251 l 310 1251 l 504 1054 l 669 1054 z "},"Å":{"ha":1106,"x_min":0,"x_max":0,"o":"m 378 401 l 550 819 l 719 401 z m -12 0 l 213 0 l 315 246 l 782 246 l 886 0 l 1118 0 l 676 992 l 429 992 z m 386 1190 b 554 1022 386 1097 461 1022 b 722 1190 647 1022 722 1097 b 554 1358 722 1283 647 1358 b 386 1190 461 1358 386 1283 z m 467 1190 b 554 1278 467 1239 506 1278 b 642 1190 603 1278 642 1239 b 554 1103 642 1142 603 1103 b 467 1190 506 1103 467 1142 z "},"Ã":{"ha":1106,"x_min":0,"x_max":0,"o":"m 378 401 l 550 819 l 719 401 z m -12 0 l 213 0 l 315 246 l 782 246 l 886 0 l 1118 0 l 676 992 l 429 992 z m 346 1056 b 413 1114 356 1089 374 1114 b 694 1053 472 1114 606 1053 b 821 1111 760 1053 797 1076 b 863 1236 844 1147 854 1193 l 763 1236 b 696 1175 751 1197 740 1175 b 569 1206 663 1175 617 1190 b 438 1236 522 1221 475 1236 b 244 1056 322 1236 265 1167 z "},"É":{"ha":1029,"x_min":0,"x_max":0,"o":"m 101 0 l 974 0 l 974 156 l 310 156 l 310 431 l 936 431 l 936 586 l 310 586 l 310 836 l 963 836 l 963 992 l 101 992 z m 399 1054 l 564 1054 l 758 1251 l 522 1251 z "},"Ê":{"ha":1029,"x_min":0,"x_max":0,"o":"m 101 0 l 974 0 l 974 156 l 310 156 l 310 431 l 936 431 l 936 586 l 310 586 l 310 836 l 963 836 l 963 992 l 101 992 z m 631 1251 l 399 1251 l 207 1054 l 399 1054 l 514 1169 l 631 1054 l 822 1054 z "},"Ë":{"ha":1029,"x_min":0,"x_max":0,"o":"m 101 0 l 974 0 l 974 156 l 310 156 l 310 431 l 936 431 l 936 586 l 310 586 l 310 836 l 963 836 l 963 992 l 101 992 z m 238 1054 l 429 1054 l 429 1210 l 238 1210 z m 600 1054 l 792 1054 l 792 1210 l 600 1210 z "},"È":{"ha":1029,"x_min":0,"x_max":0,"o":"m 101 0 l 974 0 l 974 156 l 310 156 l 310 431 l 936 431 l 936 586 l 310 586 l 310 836 l 963 836 l 963 992 l 101 992 z m 507 1251 l 271 1251 l 465 1054 l 631 1054 z "},"Í":{"ha":411,"x_min":0,"x_max":0,"o":"m 101 0 l 310 0 l 310 992 l 101 992 z m 90 1054 l 256 1054 l 450 1251 l 214 1251 z "},"Î":{"ha":411,"x_min":0,"x_max":0,"o":"m 101 0 l 310 0 l 310 992 l 101 992 z m 322 1251 l 90 1251 l -101 1054 l 90 1054 l 206 1169 l 322 1054 l 514 1054 z "},"Ï":{"ha":411,"x_min":0,"x_max":0,"o":"m 101 0 l 310 0 l 310 992 l 101 992 z m -71 1054 l 121 1054 l 121 1210 l -71 1210 z m 292 1054 l 483 1054 l 483 1210 l 292 1210 z "},"Ì":{"ha":411,"x_min":0,"x_max":0,"o":"m 101 0 l 310 0 l 310 992 l 101 992 z m 199 1251 l -37 1251 l 157 1054 l 322 1054 z "},"Ñ":{"ha":1235,"x_min":0,"x_max":0,"o":"m 101 0 l 301 0 l 301 744 l 304 744 l 899 0 l 1133 0 l 1133 992 l 933 992 l 933 247 l 931 247 l 340 992 l 101 992 z m 410 1056 b 476 1114 419 1089 438 1114 b 758 1053 536 1114 669 1053 b 885 1111 824 1053 861 1076 b 926 1236 908 1147 918 1193 l 826 1236 b 760 1175 815 1197 804 1175 b 633 1206 726 1175 681 1190 b 501 1236 586 1221 539 1236 b 308 1056 386 1236 329 1167 z "},"Ó":{"ha":1258,"x_min":0,"x_max":0,"o":"m 629 -28 b 1213 496 1049 -28 1213 217 b 629 1019 1213 775 1049 1019 b 46 496 210 1019 46 775 b 629 -28 46 217 210 -28 z m 629 128 b 263 496 396 128 263 278 b 629 864 263 714 396 864 b 996 496 863 864 996 714 b 629 128 996 278 863 128 z m 514 1054 l 679 1054 l 874 1251 l 638 1251 z "},"Ô":{"ha":1258,"x_min":0,"x_max":0,"o":"m 629 -28 b 1213 496 1049 -28 1213 217 b 629 1019 1213 775 1049 1019 b 46 496 210 1019 46 775 b 629 -28 46 217 210 -28 z m 629 128 b 263 496 396 128 263 278 b 629 864 263 714 396 864 b 996 496 863 864 996 714 b 629 128 996 278 863 128 z m 746 1251 l 514 1251 l 322 1054 l 514 1054 l 629 1169 l 746 1054 l 938 1054 z "},"Ö":{"ha":1258,"x_min":0,"x_max":0,"o":"m 629 -28 b 1213 496 1049 -28 1213 217 b 629 1019 1213 775 1049 1019 b 46 496 210 1019 46 775 b 629 -28 46 217 210 -28 z m 629 128 b 263 496 396 128 263 278 b 629 864 263 714 396 864 b 996 496 863 864 996 714 b 629 128 996 278 863 128 z m 353 1054 l 544 1054 l 544 1210 l 353 1210 z m 715 1054 l 907 1054 l 907 1210 l 715 1210 z "},"Ò":{"ha":1258,"x_min":0,"x_max":0,"o":"m 629 -28 b 1213 496 1049 -28 1213 217 b 629 1019 1213 775 1049 1019 b 46 496 210 1019 46 775 b 629 -28 46 217 210 -28 z m 629 128 b 263 496 396 128 263 278 b 629 864 263 714 396 864 b 996 496 863 864 996 714 b 629 128 996 278 863 128 z m 622 1251 l 386 1251 l 581 1054 l 746 1054 z "},"Õ":{"ha":1258,"x_min":0,"x_max":0,"o":"m 629 -28 b 1213 496 1049 -28 1213 217 b 629 1019 1213 775 1049 1019 b 46 496 210 1019 46 775 b 629 -28 46 217 210 -28 z m 629 128 b 263 496 396 128 263 278 b 629 864 263 714 396 864 b 996 496 863 864 996 714 b 629 128 996 278 863 128 z m 422 1056 b 489 1114 432 1089 450 1114 b 771 1053 549 1114 682 1053 b 897 1111 836 1053 874 1076 b 939 1236 921 1147 931 1193 l 839 1236 b 772 1175 828 1197 817 1175 b 646 1206 739 1175 693 1190 b 514 1236 599 1221 551 1236 b 321 1056 399 1236 342 1167 z "},"Š":{"ha":1029,"x_min":0,"x_max":0,"o":"m 49 713 b 779 274 49 306 779 519 b 535 128 779 165 661 128 b 250 321 364 128 256 190 l 25 321 b 528 -28 28 113 171 -28 b 1004 294 739 -28 1004 39 b 265 728 1004 718 265 494 b 496 864 265 821 357 864 b 746 704 669 864 739 781 l 971 704 b 486 1019 944 992 639 1019 b 49 713 244 1019 49 933 z m 822 1251 l 631 1251 l 514 1136 l 399 1251 l 207 1251 l 399 1054 l 631 1054 z "},"Ú":{"ha":1157,"x_min":0,"x_max":0,"o":"m 93 426 b 578 -28 93 263 99 -28 b 1064 426 1058 -28 1064 263 l 1064 992 l 856 992 l 856 432 b 578 128 856 294 850 128 b 301 432 307 128 301 294 l 301 992 l 93 992 z m 463 1054 l 628 1054 l 822 1251 l 586 1251 z "},"Û":{"ha":1157,"x_min":0,"x_max":0,"o":"m 93 426 b 578 -28 93 263 99 -28 b 1064 426 1058 -28 1064 263 l 1064 992 l 856 992 l 856 432 b 578 128 856 294 850 128 b 301 432 307 128 301 294 l 301 992 l 93 992 z m 694 1251 l 463 1251 l 271 1054 l 463 1054 l 578 1169 l 694 1054 l 886 1054 z "},"Ü":{"ha":1157,"x_min":0,"x_max":0,"o":"m 93 426 b 578 -28 93 263 99 -28 b 1064 426 1058 -28 1064 263 l 1064 992 l 856 992 l 856 432 b 578 128 856 294 850 128 b 301 432 307 128 301 294 l 301 992 l 93 992 z m 301 1054 l 493 1054 l 493 1210 l 301 1210 z m 664 1054 l 856 1054 l 856 1210 l 664 1210 z "},"Ù":{"ha":1157,"x_min":0,"x_max":0,"o":"m 93 426 b 578 -28 93 263 99 -28 b 1064 426 1058 -28 1064 263 l 1064 992 l 856 992 l 856 432 b 578 128 856 294 850 128 b 301 432 307 128 301 294 l 301 992 l 93 992 z m 571 1251 l 335 1251 l 529 1054 l 694 1054 z "},"Ý":{"ha":1056,"x_min":0,"x_max":0,"o":"m 424 0 l 632 0 l 632 378 l 1065 992 l 811 992 l 528 550 l 244 992 l -10 992 l 424 378 z m 413 1054 l 578 1054 l 772 1251 l 536 1251 z "},"Ÿ":{"ha":1056,"x_min":0,"x_max":0,"o":"m 424 0 l 632 0 l 632 378 l 1065 992 l 811 992 l 528 550 l 244 992 l -10 992 l 424 378 z m 251 1054 l 443 1054 l 443 1210 l 251 1210 z m 614 1054 l 806 1054 l 806 1210 l 614 1210 z "},"Ž":{"ha":1003,"x_min":0,"x_max":0,"o":"m 21 0 l 982 0 l 982 164 l 301 164 l 978 840 l 978 992 l 68 992 l 68 836 l 704 836 l 21 151 z m 810 1251 l 618 1251 l 501 1136 l 386 1251 l 194 1251 l 386 1054 l 618 1054 z "},"á":{"ha":978,"x_min":0,"x_max":0,"o":"m 868 517 b 472 764 868 613 857 764 b 83 511 254 764 111 704 l 271 511 b 472 633 278 593 346 633 b 681 528 583 633 681 613 b 376 435 681 471 651 461 b 46 203 254 424 46 406 b 346 -28 46 58 154 -28 b 692 74 561 -28 654 38 b 836 -21 697 46 711 -21 b 972 -4 901 -21 935 -11 l 972 131 b 910 126 957 128 928 126 b 868 168 897 126 868 128 z m 676 296 b 400 94 676 133 503 94 b 246 210 335 94 246 113 b 425 321 246 272 281 304 b 676 367 561 336 621 343 z m 374 838 l 539 838 l 733 1035 l 497 1035 z "},"â":{"ha":978,"x_min":0,"x_max":0,"o":"m 868 517 b 472 764 868 613 857 764 b 83 511 254 764 111 704 l 271 511 b 472 633 278 593 346 633 b 681 528 583 633 681 613 b 376 435 681 471 651 461 b 46 203 254 424 46 406 b 346 -28 46 58 154 -28 b 692 74 561 -28 654 38 b 836 -21 697 46 711 -21 b 972 -4 901 -21 935 -11 l 972 131 b 910 126 957 128 928 126 b 868 168 897 126 868 128 z m 676 296 b 400 94 676 133 503 94 b 246 210 335 94 246 113 b 425 321 246 272 281 304 b 676 367 561 336 621 343 z m 606 1035 l 374 1035 l 182 838 l 374 838 l 489 953 l 606 838 l 797 838 z "},"ä":{"ha":978,"x_min":0,"x_max":0,"o":"m 868 517 b 472 764 868 613 857 764 b 83 511 254 764 111 704 l 271 511 b 472 633 278 593 346 633 b 681 528 583 633 681 613 b 376 435 681 471 651 461 b 46 203 254 424 46 406 b 346 -28 46 58 154 -28 b 692 74 561 -28 654 38 b 836 -21 697 46 711 -21 b 972 -4 901 -21 935 -11 l 972 131 b 910 126 957 128 928 126 b 868 168 897 126 868 128 z m 676 296 b 400 94 676 133 503 94 b 246 210 335 94 246 113 b 425 321 246 272 281 304 b 676 367 561 336 621 343 z m 213 838 l 404 838 l 404 993 l 213 993 z m 575 838 l 767 838 l 767 993 l 575 993 z "},"à":{"ha":978,"x_min":0,"x_max":0,"o":"m 868 517 b 472 764 868 613 857 764 b 83 511 254 764 111 704 l 271 511 b 472 633 278 593 346 633 b 681 528 583 633 681 613 b 376 435 681 471 651 461 b 46 203 254 424 46 406 b 346 -28 46 58 154 -28 b 692 74 561 -28 654 38 b 836 -21 697 46 711 -21 b 972 -4 901 -21 935 -11 l 972 131 b 910 126 957 128 928 126 b 868 168 897 126 868 128 z m 676 296 b 400 94 676 133 503 94 b 246 210 335 94 246 113 b 425 321 246 272 281 304 b 676 367 561 336 621 343 z m 482 1035 l 246 1035 l 440 838 l 606 838 z "},"å":{"ha":978,"x_min":0,"x_max":0,"o":"m 868 517 b 472 764 868 613 857 764 b 83 511 254 764 111 704 l 271 511 b 472 633 278 593 346 633 b 681 528 583 633 681 613 b 376 435 681 471 651 461 b 46 203 254 424 46 406 b 346 -28 46 58 154 -28 b 692 74 561 -28 654 38 b 836 -21 697 46 711 -21 b 972 -4 901 -21 935 -11 l 972 131 b 910 126 957 128 928 126 b 868 168 897 126 868 128 z m 676 296 b 400 94 676 133 503 94 b 246 210 335 94 246 113 b 425 321 246 272 281 304 b 676 367 561 336 621 343 z m 322 974 b 490 806 322 881 397 806 b 658 974 583 806 658 881 b 490 1142 658 1067 583 1142 b 322 974 397 1142 322 1067 z m 403 974 b 490 1061 403 1022 442 1061 b 578 974 539 1061 578 1022 b 490 886 578 925 539 886 b 403 974 442 886 403 925 z "},"ã":{"ha":978,"x_min":0,"x_max":0,"o":"m 868 517 b 472 764 868 613 857 764 b 83 511 254 764 111 704 l 271 511 b 472 633 278 593 346 633 b 681 528 583 633 681 613 b 376 435 681 471 651 461 b 46 203 254 424 46 406 b 346 -28 46 58 154 -28 b 692 74 561 -28 654 38 b 836 -21 697 46 711 -21 b 972 -4 901 -21 935 -11 l 972 131 b 910 126 957 128 928 126 b 868 168 897 126 868 128 z m 676 296 b 400 94 676 133 503 94 b 246 210 335 94 246 113 b 425 321 246 272 281 304 b 676 367 561 336 621 343 z m 282 839 b 349 897 292 872 310 897 b 631 836 408 897 542 836 b 757 894 696 836 733 860 b 799 1019 781 931 790 976 l 699 1019 b 632 958 688 981 676 958 b 506 989 599 958 553 974 b 374 1019 458 1004 411 1019 b 181 839 258 1019 201 950 z "},"é":{"ha":1003,"x_min":0,"x_max":0,"o":"m 949 319 l 949 347 b 497 764 949 563 824 764 b 54 361 236 764 54 607 b 510 -28 54 165 178 -28 b 932 217 790 -28 890 135 l 724 217 b 504 111 686 156 631 111 b 254 319 314 111 258 238 z m 254 442 b 500 633 286 592 411 633 b 749 442 594 633 725 589 z m 386 838 l 551 838 l 746 1035 l 510 1035 z "},"ê":{"ha":1003,"x_min":0,"x_max":0,"o":"m 949 319 l 949 347 b 497 764 949 563 824 764 b 54 361 236 764 54 607 b 510 -28 54 165 178 -28 b 932 217 790 -28 890 135 l 724 217 b 504 111 686 156 631 111 b 254 319 314 111 258 238 z m 254 442 b 500 633 286 592 411 633 b 749 442 594 633 725 589 z m 618 1035 l 386 1035 l 194 838 l 386 838 l 501 953 l 618 838 l 810 838 z "},"ë":{"ha":1003,"x_min":0,"x_max":0,"o":"m 949 319 l 949 347 b 497 764 949 563 824 764 b 54 361 236 764 54 607 b 510 -28 54 165 178 -28 b 932 217 790 -28 890 135 l 724 217 b 504 111 686 156 631 111 b 254 319 314 111 258 238 z m 254 442 b 500 633 286 592 411 633 b 749 442 594 633 725 589 z m 225 838 l 417 838 l 417 993 l 225 993 z m 588 838 l 779 838 l 779 993 l 588 993 z "},"è":{"ha":1003,"x_min":0,"x_max":0,"o":"m 949 319 l 949 347 b 497 764 949 563 824 764 b 54 361 236 764 54 607 b 510 -28 54 165 178 -28 b 932 217 790 -28 890 135 l 724 217 b 504 111 686 156 631 111 b 254 319 314 111 258 238 z m 254 442 b 500 633 286 592 411 633 b 749 442 594 633 725 589 z m 494 1035 l 258 1035 l 453 838 l 618 838 z "},"í":{"ha":358,"x_min":0,"x_max":0,"o":"m 83 0 l 275 0 l 275 736 l 83 736 z m 64 838 l 229 838 l 424 1035 l 188 1035 z "},"î":{"ha":358,"x_min":0,"x_max":0,"o":"m 83 0 l 275 0 l 275 736 l 83 736 z m 296 1035 l 64 1035 l -128 838 l 64 838 l 179 953 l 296 838 l 488 838 z "},"ï":{"ha":358,"x_min":0,"x_max":0,"o":"m 83 0 l 275 0 l 275 736 l 83 736 z m -97 838 l 94 838 l 94 993 l -97 993 z m 265 838 l 457 838 l 457 993 l 265 993 z "},"ì":{"ha":358,"x_min":0,"x_max":0,"o":"m 83 0 l 275 0 l 275 736 l 83 736 z m 172 1035 l -64 1035 l 131 838 l 296 838 z "},"ñ":{"ha":953,"x_min":0,"x_max":0,"o":"m 78 0 l 269 0 l 269 396 b 499 608 269 553 399 608 b 683 439 657 608 683 518 l 683 0 l 875 0 l 875 500 b 563 756 875 699 721 756 b 272 625 432 756 335 704 l 269 625 l 269 736 l 78 736 z m 269 839 b 336 897 279 872 297 897 b 618 836 396 897 529 836 b 744 894 683 836 721 860 b 786 1019 768 931 778 976 l 686 1019 b 619 958 675 981 664 958 b 493 989 586 958 540 974 b 361 1019 446 1004 399 1019 b 168 839 246 1019 189 950 z "},"ó":{"ha":1003,"x_min":0,"x_max":0,"o":"m 246 368 b 501 617 246 496 315 617 b 757 368 688 617 757 496 b 501 119 757 240 688 119 b 246 368 315 119 246 240 z m 46 368 b 501 -28 46 165 172 -28 b 957 368 831 -28 957 165 b 501 764 957 571 831 764 b 46 368 172 764 46 571 z m 386 838 l 551 838 l 746 1035 l 510 1035 z "},"ô":{"ha":1003,"x_min":0,"x_max":0,"o":"m 246 368 b 501 617 246 496 315 617 b 757 368 688 617 757 496 b 501 119 757 240 688 119 b 246 368 315 119 246 240 z m 46 368 b 501 -28 46 165 172 -28 b 957 368 831 -28 957 165 b 501 764 957 571 831 764 b 46 368 172 764 46 571 z m 618 1035 l 386 1035 l 194 838 l 386 838 l 501 953 l 618 838 l 810 838 z "},"ö":{"ha":1003,"x_min":0,"x_max":0,"o":"m 246 368 b 501 617 246 496 315 617 b 757 368 688 617 757 496 b 501 119 757 240 688 119 b 246 368 315 119 246 240 z m 46 368 b 501 -28 46 165 172 -28 b 957 368 831 -28 957 165 b 501 764 957 571 831 764 b 46 368 172 764 46 571 z m 225 838 l 417 838 l 417 993 l 225 993 z m 588 838 l 779 838 l 779 993 l 588 993 z "},"ò":{"ha":1003,"x_min":0,"x_max":0,"o":"m 246 368 b 501 617 246 496 315 617 b 757 368 688 617 757 496 b 501 119 757 240 688 119 b 246 368 315 119 246 240 z m 46 368 b 501 -28 46 165 172 -28 b 957 368 831 -28 957 165 b 501 764 957 571 831 764 b 46 368 172 764 46 571 z m 494 1035 l 258 1035 l 453 838 l 618 838 z "},"õ":{"ha":1003,"x_min":0,"x_max":0,"o":"m 246 368 b 501 617 246 496 315 617 b 757 368 688 617 757 496 b 501 119 757 240 688 119 b 246 368 315 119 246 240 z m 46 368 b 501 -28 46 165 172 -28 b 957 368 831 -28 957 165 b 501 764 957 571 831 764 b 46 368 172 764 46 571 z m 294 839 b 361 897 304 872 322 897 b 643 836 421 897 554 836 b 769 894 708 836 746 860 b 811 1019 793 931 803 976 l 711 1019 b 644 958 700 981 689 958 b 518 989 611 958 565 974 b 386 1019 471 1004 424 1019 b 193 839 271 1019 214 950 z "},"š":{"ha":900,"x_min":0,"x_max":0,"o":"m 40 231 b 453 -28 47 6 296 -28 b 860 224 681 -28 860 36 b 460 453 860 394 701 418 b 257 549 275 479 257 489 b 424 633 257 588 315 633 b 632 511 489 633 617 621 l 832 511 b 433 764 821 747 547 764 b 65 526 310 764 65 736 b 413 301 65 358 185 332 b 651 197 619 274 651 254 b 451 103 651 128 547 103 b 249 231 382 103 254 119 z m 758 1035 l 567 1035 l 450 919 l 335 1035 l 143 1035 l 335 838 l 567 838 z "},"ú":{"ha":953,"x_min":0,"x_max":0,"o":"m 78 244 b 390 -28 78 29 232 -28 b 681 103 521 -28 618 24 l 683 103 l 683 0 l 875 0 l 875 736 l 683 736 l 683 332 b 460 119 683 175 544 119 b 269 317 296 119 269 204 l 269 736 l 78 736 z m 361 838 l 526 838 l 721 1035 l 485 1035 z "},"û":{"ha":953,"x_min":0,"x_max":0,"o":"m 78 244 b 390 -28 78 29 232 -28 b 681 103 521 -28 618 24 l 683 103 l 683 0 l 875 0 l 875 736 l 683 736 l 683 332 b 460 119 683 175 544 119 b 269 317 296 119 269 204 l 269 736 l 78 736 z m 593 1035 l 361 1035 l 169 838 l 361 838 l 476 953 l 593 838 l 785 838 z "},"ü":{"ha":953,"x_min":0,"x_max":0,"o":"m 78 244 b 390 -28 78 29 232 -28 b 681 103 521 -28 618 24 l 683 103 l 683 0 l 875 0 l 875 736 l 683 736 l 683 332 b 460 119 683 175 544 119 b 269 317 296 119 269 204 l 269 736 l 78 736 z m 200 838 l 392 838 l 392 993 l 200 993 z m 563 838 l 754 838 l 754 993 l 563 993 z "},"ù":{"ha":953,"x_min":0,"x_max":0,"o":"m 78 244 b 390 -28 78 29 232 -28 b 681 103 521 -28 618 24 l 683 103 l 683 0 l 875 0 l 875 736 l 683 736 l 683 332 b 460 119 683 175 544 119 b 269 317 296 119 269 204 l 269 736 l 78 736 z m 469 1035 l 233 1035 l 428 838 l 593 838 z "},"ý":{"ha":849,"x_min":0,"x_max":0,"o":"m 329 13 l 286 -76 b 175 -133 264 -122 226 -133 b 79 -131 133 -133 94 -132 l 79 -278 b 199 -281 117 -279 167 -281 b 464 -131 358 -281 406 -257 l 865 736 l 661 736 l 431 210 l 194 736 l -14 736 z m 308 838 l 474 838 l 668 1035 l 432 1035 z "},"ÿ":{"ha":849,"x_min":0,"x_max":0,"o":"m 329 13 l 286 -76 b 175 -133 264 -122 226 -133 b 79 -131 133 -133 94 -132 l 79 -278 b 199 -281 117 -279 167 -281 b 464 -131 358 -281 406 -257 l 865 736 l 661 736 l 431 210 l 194 736 l -14 736 z m 147 838 l 339 838 l 339 993 l 147 993 z m 510 838 l 701 838 l 701 993 l 510 993 z "},"ž":{"ha":849,"x_min":0,"x_max":0,"o":"m 31 0 l 818 0 l 818 147 l 294 147 l 800 606 l 800 736 l 57 736 l 57 589 l 526 589 l 31 139 z m 732 1035 l 540 1035 l 424 919 l 308 1035 l 117 1035 l 308 838 l 540 838 z "}}}
